<svg xmlns="http://www.w3.org/2000/svg" width="43" height="32" viewBox="0 0 43 32"><path d="M-18.885 6.257H63.91V24.28h-82.795V6.257z" fill="#FFF"/><path d="M63.76 37.333h-82.473V22.927H63.76v14.406zM63.96 8.675h-82.845V-5.333H63.96V8.675zM21.61 16.393l-1.637-1.126 2.037-.008.65-1.84.606 1.833 2.037-.01-1.662 1.14.61 1.834-1.633-1.128-1.66 1.143zM33.52 19.46l-1.635-1.126 2.037-.008.65-1.84.606 1.834 2.037-.01-1.662 1.14.61 1.834-1.634-1.128-1.66 1.144zM33.52 13.09l-1.635-1.125 2.037-.008.65-1.84.606 1.834 2.037-.01-1.662 1.142.61 1.833-1.634-1.128-1.66 1.144zM7.22 19.46l-1.636-1.126 2.037-.008.65-1.84.607 1.834 2.037-.01-1.662 1.14.61 1.834-1.634-1.128-1.66 1.144zM7.22 13.09l-1.636-1.125 2.037-.008.65-1.84.607 1.834 2.037-.01-1.662 1.142.61 1.833-1.634-1.128-1.66 1.144z" fill="#087BCE"/></svg>